<svg width="24" height="21" viewBox="0 0 24 21" xmlns="http://www.w3.org/2000/svg">
    <path d="M21.488 1.515C18.778-.763 14.592-.421 12 2.218 9.408-.421 5.222-.768 2.512 1.515-1.012 4.48-.497 9.317 2.016 11.88l8.222 8.374A2.458 2.458 0 0 0 12 21c.67 0 1.294-.262 1.762-.74l8.222-8.375c2.508-2.563 3.033-7.4-.496-10.37zM20.38 10.3l-8.222 8.375c-.112.112-.206.112-.318 0L3.619 10.3C1.908 8.558 1.56 5.26 3.96 3.24c1.823-1.532 4.636-1.303 6.398.492L12 5.404l1.64-1.673c1.772-1.804 4.585-2.024 6.399-.496 2.395 2.02 2.04 5.337.342 7.066z" fill="currentColor" fill-rule="nonzero"/>
</svg>
